<?xml version="1.0" encoding="UTF-8" standalone="no"?><!DOCTYPE svg PUBLIC "-//W3C//DTD SVG 1.1//EN" "http://www.w3.org/Graphics/SVG/1.1/DTD/svg11.dtd"><svg width="100%" height="100%" viewBox="0 0 476 582" version="1.1" xmlns="http://www.w3.org/2000/svg" xmlns:xlink="http://www.w3.org/1999/xlink" xml:space="preserve" xmlns:serif="http://www.serif.com/" style="fill-rule:evenodd;clip-rule:evenodd;stroke-linecap:square;"><g><path id="path2" d="M235.923,0l4.159,0l8.957,4.638c5.971,3.093 9.916,5.119 11.836,6.079c1.919,0.959 8.45,4.078 19.593,9.356c11.143,5.279 16.901,7.945 17.275,7.998c0.373,0.053 3.332,1.306 8.877,3.759c5.545,2.452 9.81,4.265 12.796,5.438c2.985,1.173 7.304,2.772 12.955,4.798c5.652,2.026 9.224,3.306 10.717,3.839c1.493,0.533 3.359,1.173 5.598,1.919c2.239,0.747 5.118,1.653 8.637,2.719c3.519,1.067 7.998,2.346 13.436,3.839c5.438,1.493 10.716,2.826 15.835,3.999c5.118,1.173 8.424,1.919 9.916,2.239c1.493,0.32 6.238,1.226 14.236,2.719c7.997,1.493 13.009,2.4 15.035,2.719c2.026,0.32 6.984,1.12 14.875,2.4c7.891,1.279 11.889,1.919 11.996,1.919c0.107,-0 3.945,0.746 11.516,2.239c7.571,1.493 11.383,2.266 11.437,2.32l0.08,0.079l-0.48,23.833c-0.32,15.888 -1.12,36.414 -2.4,61.58c-1.279,25.165 -2.292,42.759 -3.039,52.782c-0.746,10.024 -1.599,18.608 -2.559,25.752c-0.959,7.144 -2.079,13.915 -3.359,20.313c-1.279,6.398 -2.665,12.849 -4.158,19.354c-1.493,6.504 -2.826,12.209 -3.999,17.114c-1.173,4.905 -2.559,10.184 -4.159,15.835c-1.599,5.652 -2.559,9.064 -2.879,10.237c-0.32,1.173 -0.799,2.666 -1.439,4.478c-0.64,1.813 -1.386,4.052 -2.239,6.718c-0.853,2.666 -2.186,6.505 -3.999,11.516c-1.813,5.012 -3.306,9.011 -4.479,11.996c-1.173,2.986 -2.612,6.558 -4.318,10.717c-1.706,4.159 -3.892,9.17 -6.558,15.035c-2.666,5.865 -4.265,9.277 -4.799,10.237c-0.533,0.959 -2.479,4.452 -5.838,10.476c-3.359,6.025 -5.385,9.597 -6.078,10.717c-0.693,1.119 -2.346,3.945 -4.958,8.477c-2.612,4.532 -4.319,7.411 -5.118,8.637c-0.8,1.226 -2.026,3.146 -3.679,5.758c-1.653,2.613 -2.986,4.639 -3.999,6.078c-1.013,1.44 -2.186,3.146 -3.519,5.119c-1.333,1.972 -2.612,3.785 -3.838,5.438c-1.227,1.653 -2.186,3.039 -2.879,4.158c-0.694,1.12 -1.707,2.56 -3.039,4.319c-1.333,1.759 -2.613,3.519 -3.839,5.278c-1.226,1.76 -2.559,3.573 -3.999,5.439c-1.439,1.866 -2.666,3.465 -3.679,4.798c-1.013,1.333 -3.172,3.865 -6.478,7.598c-3.305,3.732 -7.197,7.997 -11.676,12.795c-4.478,4.799 -8.424,8.904 -11.836,12.316c-3.412,3.413 -5.678,5.572 -6.798,6.478c-1.119,0.907 -3.732,3.199 -7.837,6.878c-4.105,3.679 -6.611,5.918 -7.518,6.718c-0.906,0.799 -3.145,2.772 -6.717,5.918c-3.573,3.145 -5.919,5.171 -7.038,6.078c-1.12,0.906 -2.399,1.973 -3.839,3.199c-1.439,1.226 -3.439,2.905 -5.998,5.038c-2.559,2.133 -4.505,3.706 -5.838,4.719c-1.333,1.013 -2.613,1.919 -3.839,2.719c-1.226,0.799 -3.465,2.186 -6.718,4.158c-3.252,1.973 -5.384,3.306 -6.398,3.999c-1.013,0.693 -2.159,1.413 -3.438,2.159c-1.28,0.747 -2.613,1.6 -3.999,2.559c-1.386,0.96 -2.399,1.653 -3.039,2.08c-0.64,0.426 -2.026,1.173 -4.159,2.239c-2.132,1.066 -4.692,2.293 -7.677,3.679c-2.986,1.386 -5.065,2.292 -6.238,2.719l-1.76,0.64l-1.919,-0.48c-1.28,-0.32 -2.666,-0.853 -4.159,-1.6c-1.492,-0.746 -3.998,-2.026 -7.517,-3.838c-3.519,-1.813 -5.545,-2.933 -6.078,-3.359c-0.533,-0.427 -1.893,-1.36 -4.079,-2.799c-2.186,-1.44 -3.839,-2.506 -4.958,-3.199c-1.12,-0.693 -3.306,-2.026 -6.558,-3.999c-3.252,-1.973 -5.492,-3.359 -6.718,-4.159c-1.226,-0.799 -2.506,-1.706 -3.839,-2.719c-1.333,-1.013 -2.852,-2.212 -4.558,-3.599c-1.706,-1.386 -3.972,-3.278 -6.798,-5.678c-2.826,-2.399 -5.278,-4.478 -7.357,-6.238c-2.08,-1.759 -5.119,-4.425 -9.118,-7.997c-3.998,-3.572 -6.557,-5.811 -7.677,-6.718c-1.12,-0.906 -3.572,-3.039 -7.358,-6.398c-3.785,-3.359 -5.891,-5.251 -6.318,-5.678c-0.426,-0.426 -2.319,-2.319 -5.678,-5.678c-3.359,-3.359 -5.704,-5.758 -7.037,-7.198c-1.333,-1.439 -4.266,-4.638 -8.797,-9.597c-4.532,-4.958 -7.251,-7.997 -8.158,-9.117c-0.906,-1.119 -2.239,-2.772 -3.999,-4.958c-1.759,-2.186 -3.145,-3.945 -4.158,-5.278c-1.013,-1.333 -2.026,-2.719 -3.039,-4.159c-1.013,-1.439 -2.079,-2.932 -3.199,-4.478c-1.12,-1.547 -2.133,-2.933 -3.039,-4.159c-0.907,-1.226 -1.68,-2.319 -2.319,-3.279c-0.64,-0.96 -1.52,-2.213 -2.64,-3.759c-1.119,-1.546 -2.079,-2.932 -2.879,-4.158c-0.799,-1.227 -1.866,-2.826 -3.199,-4.799c-1.332,-1.972 -2.345,-3.519 -3.039,-4.638c-0.693,-1.12 -1.812,-2.879 -3.358,-5.279c-1.547,-2.399 -2.56,-4.052 -3.039,-4.958c-0.48,-0.906 -1.813,-3.199 -3.999,-6.878c-2.186,-3.678 -3.626,-6.078 -4.319,-7.197c-0.693,-1.12 -2.426,-4.186 -5.198,-9.197c-2.773,-5.012 -4.852,-8.797 -6.238,-11.357c-1.386,-2.559 -2.613,-4.958 -3.679,-7.197c-1.066,-2.239 -2.559,-5.598 -4.478,-10.077c-1.92,-4.478 -2.879,-6.771 -2.879,-6.878c-0,-0.106 -0.96,-2.559 -2.879,-7.357c-1.92,-4.799 -3.413,-8.584 -4.479,-11.357c-1.066,-2.772 -2.559,-6.984 -4.479,-12.635c-1.919,-5.652 -3.838,-11.677 -5.758,-18.075c-1.919,-6.397 -4.052,-14.182 -6.398,-23.352c-2.345,-9.17 -3.998,-15.995 -4.958,-20.473c-0.96,-4.479 -2.293,-10.983 -3.999,-19.514c-1.706,-8.53 -2.719,-14.129 -3.039,-16.794c-0.32,-2.666 -1.013,-10.823 -2.079,-24.472c-1.066,-13.649 -1.759,-23.939 -2.079,-30.87c-0.32,-6.931 -0.693,-14.289 -1.12,-22.073c-0.426,-7.784 -1.013,-20.527 -1.759,-38.228c-0.747,-17.7 -1.12,-30.23 -1.12,-37.587l0,-11.037l1.04,-0.559c0.693,-0.374 2.585,-0.827 5.678,-1.36c3.092,-0.533 7.357,-1.226 12.796,-2.079c5.438,-0.853 13.702,-2.24 24.792,-4.159c11.089,-1.919 19.033,-3.306 23.832,-4.159c4.798,-0.853 11.143,-2.186 19.034,-3.998c7.89,-1.813 14.715,-3.519 20.473,-5.119c5.758,-1.599 10.716,-3.092 14.875,-4.478c4.159,-1.386 7.411,-2.453 9.757,-3.199c2.346,-0.747 4.585,-1.493 6.718,-2.239c2.132,-0.747 6.397,-2.346 12.795,-4.799c6.398,-2.452 12.396,-4.932 17.994,-7.437c5.599,-2.506 8.584,-3.786 8.958,-3.839c0.373,-0.053 3.065,-1.253 8.077,-3.599c5.012,-2.346 9.543,-4.478 13.595,-6.398c4.052,-1.919 8.051,-3.839 11.997,-5.758c3.945,-1.919 8.85,-4.425 14.715,-7.518l8.797,-4.638Z" style="fill-rule:nonzero;"/><path id="path4" d="M237.994,14.074l1.973,0l8.499,4.414c5.666,2.943 9.41,4.871 11.231,5.784c1.821,0.913 8.019,3.882 18.592,8.904c10.574,5.023 16.038,7.56 16.392,7.611c0.354,0.051 3.162,1.243 8.423,3.577c5.262,2.334 9.309,4.059 12.142,5.175c2.833,1.116 6.931,2.638 12.294,4.566c5.363,1.928 8.752,3.146 10.169,3.654c1.416,0.507 3.187,1.116 5.312,1.826c2.125,0.71 4.857,1.573 8.196,2.588c3.339,1.014 7.588,2.232 12.748,3.653c5.161,1.42 10.169,2.689 15.026,3.805c4.857,1.116 7.993,1.826 9.41,2.131c1.417,0.304 5.919,1.167 13.508,2.587c7.588,1.421 12.344,2.284 14.267,2.588c1.922,0.304 6.627,1.065 14.114,2.283c7.488,1.218 11.282,1.827 11.383,1.827c0.101,-0 3.744,0.71 10.928,2.131c7.184,1.42 10.801,2.156 10.852,2.207l0.076,0.076l-0.456,22.679c-0.303,15.12 -1.062,34.654 -2.276,58.602c-1.215,23.947 -2.176,40.69 -2.884,50.23c-0.708,9.538 -1.518,17.707 -2.428,24.506c-0.911,6.798 -1.973,13.242 -3.188,19.33c-1.214,6.089 -2.529,12.228 -3.946,18.418c-1.416,6.189 -2.681,11.618 -3.794,16.286c-1.113,4.668 -2.429,9.691 -3.946,15.069c-1.518,5.378 -2.429,8.625 -2.732,9.741c-0.304,1.116 -0.759,2.537 -1.366,4.262c-0.607,1.725 -1.316,3.856 -2.125,6.393c-0.809,2.537 -2.074,6.19 -3.794,10.959c-1.72,4.769 -3.137,8.574 -4.25,11.416c-1.113,2.841 -2.479,6.24 -4.098,10.198c-1.619,3.957 -3.693,8.726 -6.222,14.307c-2.53,5.581 -4.047,8.829 -4.553,9.742c-0.506,0.913 -2.353,4.236 -5.54,9.97c-3.187,5.733 -5.11,9.132 -5.767,10.198c-0.658,1.065 -2.226,3.754 -4.705,8.067c-2.479,4.312 -4.098,7.052 -4.857,8.219c-0.759,1.167 -1.922,2.994 -3.491,5.48c-1.568,2.486 -2.833,4.414 -3.794,5.784c-0.961,1.37 -2.074,2.993 -3.339,4.87c-1.265,1.878 -2.479,3.603 -3.643,5.176c-1.163,1.572 -2.074,2.892 -2.732,3.957c-0.657,1.066 -1.619,2.435 -2.883,4.11c-1.265,1.674 -2.479,3.348 -3.643,5.023c-1.164,1.674 -2.428,3.399 -3.794,5.175c-1.366,1.776 -2.53,3.298 -3.491,4.566c-0.961,1.269 -3.01,3.679 -6.147,7.23c-3.136,3.552 -6.829,7.611 -11.079,12.177c-4.25,4.566 -7.993,8.473 -11.231,11.72c-3.238,3.247 -5.388,5.302 -6.451,6.165c-1.062,0.862 -3.541,3.044 -7.437,6.545c-3.895,3.5 -6.273,5.631 -7.133,6.393c-0.86,0.761 -2.985,2.638 -6.374,5.631c-3.39,2.994 -5.616,4.922 -6.679,5.784c-1.062,0.863 -2.276,1.878 -3.642,3.044c-1.366,1.167 -3.263,2.766 -5.692,4.795c-2.428,2.03 -4.275,3.526 -5.539,4.49c-1.265,0.964 -2.479,1.827 -3.643,2.588c-1.164,0.761 -3.288,2.08 -6.375,3.957c-3.086,1.877 -5.109,3.146 -6.071,3.805c-0.961,0.66 -2.049,1.345 -3.263,2.055c-1.214,0.71 -2.479,1.522 -3.794,2.436c-1.315,0.913 -2.277,1.572 -2.884,1.978c-0.607,0.406 -1.922,1.116 -3.946,2.131c-2.024,1.015 -4.452,2.182 -7.285,3.501c-2.833,1.319 -4.806,2.182 -5.919,2.588l-1.67,0.609l-1.821,-0.457c-1.214,-0.304 -2.53,-0.812 -3.946,-1.522c-1.417,-0.71 -3.795,-1.928 -7.134,-3.653c-3.339,-1.725 -5.261,-2.791 -5.767,-3.197c-0.506,-0.406 -1.796,-1.294 -3.87,-2.663c-2.074,-1.37 -3.643,-2.385 -4.705,-3.045c-1.063,-0.659 -3.137,-1.928 -6.223,-3.805c-3.086,-1.877 -5.211,-3.196 -6.374,-3.957c-1.164,-0.761 -2.378,-1.624 -3.643,-2.588c-1.265,-0.964 -2.707,-2.105 -4.326,-3.425c-1.619,-1.319 -3.769,-3.12 -6.45,-5.403c-2.681,-2.283 -5.009,-4.262 -6.981,-5.936c-1.973,-1.675 -4.857,-4.211 -8.651,-7.611c-3.795,-3.399 -6.223,-5.53 -7.285,-6.393c-1.063,-0.862 -3.39,-2.892 -6.982,-6.088c-3.592,-3.196 -5.59,-4.997 -5.995,-5.403c-0.404,-0.406 -2.2,-2.207 -5.388,-5.404c-3.187,-3.196 -5.413,-5.479 -6.678,-6.849c-1.264,-1.37 -4.047,-4.414 -8.347,-9.133c-4.3,-4.718 -6.88,-7.61 -7.741,-8.676c-0.86,-1.065 -2.124,-2.638 -3.794,-4.718c-1.669,-2.08 -2.985,-3.754 -3.946,-5.023c-0.961,-1.268 -1.923,-2.588 -2.884,-3.957c-0.961,-1.37 -1.973,-2.791 -3.035,-4.262c-1.063,-1.472 -2.024,-2.791 -2.884,-3.958c-0.86,-1.167 -1.594,-2.207 -2.201,-3.12c-0.607,-0.913 -1.441,-2.106 -2.504,-3.577c-1.062,-1.472 -1.973,-2.791 -2.732,-3.958c-0.759,-1.167 -1.77,-2.689 -3.035,-4.566c-1.265,-1.877 -2.226,-3.348 -2.884,-4.414c-0.658,-1.065 -1.72,-2.74 -3.187,-5.023c-1.467,-2.283 -2.429,-3.856 -2.884,-4.718c-0.455,-0.863 -1.72,-3.044 -3.794,-6.545c-2.074,-3.501 -3.44,-5.784 -4.098,-6.85c-0.658,-1.065 -2.302,-3.983 -4.933,-8.752c-2.631,-4.769 -4.604,-8.371 -5.919,-10.807c-1.315,-2.435 -2.479,-4.718 -3.491,-6.849c-1.011,-2.131 -2.428,-5.328 -4.249,-9.59c-1.821,-4.262 -2.732,-6.443 -2.732,-6.545c0,-0.101 -0.911,-2.435 -2.732,-7.001c-1.821,-4.567 -3.238,-8.169 -4.249,-10.807c-1.012,-2.639 -2.429,-6.647 -4.25,-12.025c-1.821,-5.378 -3.642,-11.111 -5.464,-17.2c-1.821,-6.088 -3.845,-13.495 -6.071,-22.222c-2.226,-8.727 -3.794,-15.221 -4.705,-19.483c-0.91,-4.262 -2.175,-10.452 -3.794,-18.57c-1.619,-8.118 -2.58,-13.445 -2.884,-15.982c-0.303,-2.536 -0.961,-10.299 -1.973,-23.288c-1.011,-12.988 -1.669,-22.781 -1.973,-29.376c-0.303,-6.596 -0.657,-13.598 -1.062,-21.005c-0.405,-7.408 -0.961,-19.534 -1.67,-36.379c-0.708,-16.844 -1.062,-28.768 -1.062,-35.771l-0,-10.502l0.986,-0.533c0.658,-0.355 2.454,-0.786 5.388,-1.294c2.935,-0.507 6.982,-1.166 12.142,-1.978c5.161,-0.812 13.002,-2.131 23.525,-3.958c10.523,-1.826 18.061,-3.145 22.614,-3.957c4.553,-0.812 10.574,-2.08 18.061,-3.805c7.488,-1.725 13.963,-3.349 19.427,-4.871c5.464,-1.522 10.169,-2.943 14.115,-4.262c3.946,-1.319 7.032,-2.334 9.258,-3.044c2.226,-0.71 4.351,-1.421 6.375,-2.131c2.023,-0.71 6.071,-2.233 12.142,-4.566c6.071,-2.334 11.762,-4.693 17.074,-7.078c5.312,-2.385 8.145,-3.602 8.499,-3.653c0.354,-0.051 2.909,-1.192 7.665,-3.425c4.755,-2.232 9.055,-4.262 12.9,-6.088c3.845,-1.826 7.64,-3.653 11.383,-5.479c3.744,-1.827 8.398,-4.212 13.963,-7.154l8.348,-4.414l1.973,-0l-0,-0.001Z" style="fill:url(#_Radial1);fill-rule:nonzero;"/><g id="g1176"><path id="path1372" d="M180.988,301.578c5.82,0 10.533,4.827 10.533,10.789c0,5.961 -4.713,10.788 -10.533,10.788c-5.797,0 -10.51,-4.827 -10.51,-10.788c-0,-5.962 4.713,-10.789 10.51,-10.789Z" style="fill:#800000;"/><path id="path1433" d="M280.465,115.335c-19.359,11.477 -30.861,30.656 -30.599,51.021c0.296,20.363 12.318,39.296 31.982,50.37c19.359,-11.477 30.862,-30.657 30.6,-51.023c-0.297,-20.362 -12.319,-39.295 -31.983,-50.368Z" style="fill:#5a4124;fill-rule:nonzero;stroke:#5a4124;stroke-width:0.32px;"/><path id="path1435" d="M193.67,115.335c-19.359,11.477 -30.861,30.656 -30.599,51.021c0.297,20.363 12.318,39.296 31.982,50.37c19.36,-11.477 30.862,-30.657 30.6,-51.023c-0.297,-20.362 -12.319,-39.295 -31.983,-50.368Z" style="fill:#5a4124;fill-rule:nonzero;stroke:#5a4124;stroke-width:0.32px;"/><g id="g1441"><path id="path1437" d="M174.477,69.383c-0,0 62.624,49.5 122.859,0.185c-6.501,23.682 -10.15,42.893 -2.232,65.65c7.896,35.153 -3.209,95.596 -56.078,117.564c-0,0 -66.979,-24.19 -60.515,-111.389c1.703,-22.977 15.517,-33.71 -4.035,-72.011l0.001,0.001Z" style="fill:#996c38;fill-rule:nonzero;"/><path id="path1439" d="M298.56,67.731l-1.705,1.394c-29.945,24.515 -60.312,24.429 -83.332,18.262c-23.02,-6.167 -38.578,-18.454 -38.578,-18.454l-1.109,0.696c9.741,19.082 11.139,31.196 9.928,41.443c-1.21,10.247 -5.095,18.695 -5.954,30.283c-3.242,43.736 11.952,71.762 27.988,88.816c16.037,17.054 32.958,23.172 32.958,23.172l0.289,0.104l0.282,-0.118c26.643,-11.068 42.747,-31.83 51.187,-54.193c8.44,-22.363 9.251,-46.342 5.277,-64.036l-0.006,-0.031l-0.013,-0.028c-7.87,-22.616 -4.252,-41.671 2.243,-65.331l0.544,-1.981l0.001,0.002Zm-2.421,3.608c-6.172,22.825 -9.452,41.763 -1.715,64.024c3.915,17.457 3.114,41.266 -5.238,63.393c-8.325,22.058 -24.125,42.426 -50.179,53.351c-1.48,-0.559 -17.048,-6.675 -32.122,-22.706c-15.836,-16.84 -30.899,-44.508 -27.677,-87.968c0.844,-11.389 4.717,-19.798 5.951,-30.238c1.182,-10.005 -0.139,-21.831 -8.885,-39.714c5.053,3.546 18.553,12.171 36.839,17.068c22.92,6.14 53.269,6.239 83.027,-17.212l-0.001,0.002Z" style="fill:#5a4124;fill-rule:nonzero;"/></g><path id="path1443" d="M287.094,90.523c-6.444,4.625 -16.768,7.604 -28.436,7.604c-8.467,-0 -16.247,-1.558 -22.339,-4.194c-6.087,2.628 -13.887,4.194 -22.339,4.194c-10.798,-0 -20.435,-2.545 -26.923,-6.594c2.16,39.801 50.553,51.158 50.553,51.158c32.615,-7.64 48.854,-35.232 49.484,-52.168Z" style="fill:#fff;fill-rule:nonzero;"/><g id="g1009"><path id="path1011" d="M238.136,260.787l-51.512,-61.282l-32.286,-71.432l83.798,-10.149l83.798,10.149l-32.286,71.432l-51.512,61.282Z" style="fill:#996c38;fill-rule:nonzero;stroke:#5a4124;stroke-width:1.94px;stroke-linecap:round;stroke-linejoin:round;"/></g><path id="path1445" d="M183.96,131.526c0.016,0.092 0.025,0.185 0.039,0.277l0,-0.277l-0.039,0Zm0.039,0.277c0,38.02 -0.113,87.076 53.663,114.059c53.845,-27.017 53.672,-76.033 53.672,-114.05c-2.278,13.963 -16.068,24.691 -32.767,24.691c-7.923,-0 -15.199,-2.398 -20.899,-6.43c-5.695,4.019 -12.992,6.43 -20.9,6.43c-16.703,-0 -30.495,-10.733 -32.769,-24.7Zm107.335,0.008c0.016,-0.095 0.026,-0.191 0.041,-0.286l-0.041,-0l0,0.286Z" style="fill:#fff;"/><path id="path1370" d="M300.583,230.974c-3.769,0.007 -7.25,0.021 -10.149,0.045c-11.595,0.115 -13.852,0.385 -44.809,3.866c-30.957,3.5 -90.593,10.211 -121.262,13.711c-30.692,3.5 -32.396,3.77 -34.188,4.212c-1.793,0.442 -3.674,1.039 -4.028,1.347c-0.354,0.307 0.819,0.307 17.171,0.884c16.353,0.577 47.886,1.731 64.836,2.981c16.928,1.269 19.274,2.615 24.274,10.558c5.001,7.942 12.658,22.461 17.571,31.808c4.912,9.365 7.103,13.577 9.028,15.673c1.925,2.115 3.607,2.116 25.226,-5.019c21.641,-7.115 63.198,-21.366 87.583,-29.886c24.363,-8.5 31.554,-11.288 35.228,-12.884c3.651,-1.596 3.828,-2 3.496,-6.173c-0.309,-4.173 -1.084,-12.116 -2.478,-16.866c-1.416,-4.75 -3.452,-6.308 -6.682,-8.096c-3.231,-1.808 -7.701,-3.846 -10.821,-4.885c-3.121,-1.057 -4.913,-1.115 -16.265,-1.192c-8.53,-0.058 -22.425,-0.104 -33.731,-0.084l-0,0Zm-215.697,24.931c-0.509,0.634 -0.908,1.384 -1.173,2.25c-0.487,1.634 -0.486,3.711 0.222,6.345c0.686,2.654 2.101,5.866 7.854,13.981c5.754,8.116 15.867,21.097 21.93,27.521c6.063,6.442 8.099,6.307 10.511,5.73c0.133,-0.019 0.265,-0.058 0.42,-0.097l-0,-41c-0,-5.116 4.912,-8.519 10.644,-8.058l53.483,4.385c-0.929,-1.289 -1.991,-2.519 -3.252,-3.423c-1.682,-1.192 -3.718,-1.789 -5.82,-2.212c-3.74,-0.769 -7.922,-1.076 -11.75,-1.365c-10.555,-0.769 -21.199,-1.25 -31.798,-1.692c-10.976,-0.481 -21.951,-0.884 -32.927,-1.269c-4.735,-0.173 -9.471,-0.308 -14.207,-0.52c-0.863,-0.039 -1.725,-0.077 -2.566,-0.154c-0.575,-0.058 -1.128,-0.191 -1.571,-0.422l0,-0Zm49.373,8.58c-4.126,-0.005 -7.374,2.49 -7.374,6.15l0,69.001c0,3.923 3.695,7.578 8.21,8.135l81.011,9.904c4.514,0.538 8.21,-2.211 8.21,-6.134l-0,-32.539c-2.014,0.346 -4.183,0.423 -5.843,-0.673c-0.464,-0.289 -0.841,-0.654 -1.195,-1.039c-1.46,-1.577 -2.655,-3.673 -3.673,-5.481c-1.571,-2.788 -3.053,-5.654 -4.558,-8.501l0,36.963c0,2.75 -2.522,4.692 -5.62,4.307l-55.653,-6.961c-3.098,-0.385 -5.62,-2.962 -5.62,-5.712l-0,-48.481c-0,-2.75 2.522,-4.558 5.62,-4.308l50.674,4.251c-2.545,-4.654 -5.156,-9.347 -7.989,-13.847l-0.31,-0.481l-55.054,-4.519c-0.283,-0.023 -0.561,-0.035 -0.836,-0.035l-0,0Zm230.769,6.804c-2.301,0.904 -4.625,1.769 -6.948,2.635c-8.409,3.115 -16.928,6.077 -25.403,9.058c-13.653,4.75 -27.328,9.461 -41.025,14.154c-15.49,5.308 -31.024,10.596 -46.602,15.731c-3.806,1.269 -7.657,2.519 -11.507,3.712c-2.302,0.692 -4.625,1.403 -6.993,1.96l-0,33.002c-0,1.038 -0.199,2.018 -0.553,2.903c2.168,-0.808 4.647,-1.827 7.612,-3.135c8.453,-3.75 20.867,-9.923 41.668,-19.346c20.8,-9.443 50.01,-22.115 65.876,-29.577c15.888,-7.462 18.476,-9.712 20.313,-12.462c1.837,-2.75 2.921,-6 3.341,-10.366c0.244,-2.48 0.287,-5.308 0.221,-8.269Zm-189.24,15.943c-14.914,-0 -26.487,11.577 -25.889,25.846c0.619,14.27 13.209,25.846 28.102,25.846c14.914,0 26.488,-11.576 25.89,-25.846c-0.619,-14.269 -13.211,-25.846 -28.103,-25.846Zm0.31,7.539c10.577,-0 19.495,8.192 19.915,18.307c0.443,10.116 -7.767,18.327 -18.322,18.327c-10.577,0 -19.494,-8.211 -19.915,-18.327c-0.442,-10.115 7.767,-18.307 18.322,-18.307Zm111.704,33.749c-3.829,1.712 -7.658,3.444 -11.486,5.174c-8.519,3.865 -16.994,7.808 -25.425,11.789c-4.89,2.307 -9.759,4.634 -14.693,6.865c2.08,2.961 4.78,5.75 8.01,7.731c4.714,2.923 10.534,4.135 15.933,3.866c5.377,-0.27 10.334,-2.04 14.627,-5.943c4.293,-3.885 7.922,-9.923 10.09,-16.077c1.571,-4.423 2.368,-8.905 2.944,-13.405Zm-22.727,18.289c2.412,0 4.382,1.712 4.382,3.827c0,2.097 -1.97,3.808 -4.382,3.808c-2.434,-0 -4.404,-1.711 -4.404,-3.808c0,-2.115 1.97,-3.827 4.404,-3.827Zm45.088,1.183c-1.173,0.087 -2.071,0.916 -2.071,2.009l0,26.867l2.147,-0.943c1.283,-1.673 2.501,-3.404 3.674,-5.058c5.775,-8.077 11.705,-14.961 23.743,-14.961l1.173,-0c1.682,-0 3.164,0.711 3.983,1.98c1.681,2.635 -0.332,6.001 -3.983,6.001c-2.324,-0 -3.718,-0.019 -5.93,0.808c-1.594,0.577 -3.011,1.365 -4.316,2.326c-0.752,0.577 -1.46,1.193 -2.124,1.847c0.31,-0.135 0.642,-0.25 0.974,-0.366c1.482,-0.538 2.965,-0.962 4.602,-0.981c0.863,-0.019 1.727,0.077 2.567,0.173c4.603,0.5 9.228,1.077 13.808,1.693c1.638,0.23 4.071,0.403 4.824,1.865c0.951,1.788 0.619,4.116 0.575,6.077c-0.066,3.173 -0.133,6.385 -0.31,9.539c-0.066,0.942 -0.133,1.866 -0.509,2.769c-0.597,1.327 -1.703,2.231 -3.008,3.039c-1.926,1.192 -4.228,2.211 -6.33,3.192c-10.909,5.019 -22.017,9.75 -32.993,14.673c-0.863,0.385 -1.704,0.769 -2.567,1.154l0,4.173c0,1.25 1.195,2.25 2.589,2.558l54.79,12.307c1.394,0.308 2.589,-0.749 2.589,-1.999l-0,-72.386c-0,-1.25 -1.173,-2.403 -2.589,-2.557l-54.79,-5.789c-0.177,-0.019 -0.35,-0.022 -0.518,-0.01l0,-0Zm6.734,8.203c1.637,-0.008 3.071,1.246 3.299,2.923c0.244,1.788 -0.996,3.384 -2.766,3.557c-1.77,0.173 -3.385,-1.134 -3.628,-2.903c-0.244,-1.789 0.996,-3.385 2.766,-3.558c0.111,-0.012 0.22,-0.019 0.329,-0.019l0,-0Zm20.759,1.672c-17.128,0 -20.712,15.789 -30.116,24.135c-4.069,3.613 -9.66,5.144 -14.148,3.861l-0.341,0.171l0.028,1.471l-2.976,0.005l-1.548,0.775c4.097,2.348 9.451,2.76 14.736,0.989c14.294,-4.808 15.534,-21.538 28.722,-26.384c2.7,-0.981 4.382,-0.944 6.816,-0.944c3.098,0 3.098,-4.076 -0,-4.076l-1.173,-0.003Zm-59.879,0.154c-0.442,0.462 -0.908,0.904 -1.395,1.346c-4.403,4 -9.78,6.212 -16.108,6.539c-6.108,0.289 -12.37,-1.154 -17.371,-4.231l-0.266,-0.173l0,39.962c12.325,2.5 24.076,2.653 35.14,-0l0,-43.443Zm77.802,2.539c1.77,-0 3.232,1.461 3.232,3.249c-0,1.808 -1.462,3.27 -3.232,3.27c-1.77,0 -3.209,-1.462 -3.209,-3.27c0,-1.788 1.439,-3.249 3.209,-3.249Zm-23.298,8.904c-1.873,-0.005 -3.604,0.558 -8.831,2.808c-1.461,1.884 -2.766,3.865 -4.05,5.672c-3.894,5.577 -8.01,10.693 -15.312,13.154c-4.78,1.596 -10.092,1.732 -14.783,-0.191c-1.239,-0.52 -2.367,-1.155 -3.385,-1.886l-5.908,2.655l-0,6.307c1.128,0.462 2.102,0.866 2.943,1.193c3.364,1.308 3.961,1.23 12.082,-2.212c8.098,-3.443 23.766,-10.25 34.653,-14.962c10.887,-4.692 17.016,-7.269 19.782,-8.654c2.766,-1.365 2.19,-1.538 -1.394,-2.018c-3.607,-0.5 -10.202,-1.309 -13.742,-1.713c-0.791,-0.086 -1.431,-0.151 -2.055,-0.153Zm19.337,5.038c-0.332,0.211 -0.685,0.385 -1.039,0.558c-2.235,1.116 -4.625,2.116 -6.948,3.116c-4.315,1.865 -8.63,3.711 -12.945,5.576c-11.551,4.981 -23.08,10.058 -34.675,14.962c-1.682,0.731 -3.452,1.5 -5.223,2.135l0,11.461c2.789,0.904 5.333,1.058 7.059,0.981c2.479,-0.096 3.276,-0.673 11.773,-4.481c8.519,-3.827 24.761,-10.884 32.993,-14.673c8.231,-3.807 8.453,-4.347 8.63,-7.366c0.155,-2.692 0.264,-7.365 0.375,-12.269Zm-44.499,5.019c-3.341,1.481 -6.97,3.115 -10.798,4.846c1.195,0.039 2.412,-0.134 3.54,-0.442c2.301,-0.596 4.403,-1.808 6.085,-3.288c0.398,-0.366 0.797,-0.731 1.173,-1.116Zm-73.487,22.559l-0,19.365c17.083,7.539 35.337,7.827 54.921,0l-0,-19.365c-18.875,5.212 -37.285,6.154 -54.921,-0Zm83.73,6.927c1.637,0.007 3.072,1.262 3.3,2.938c0.243,1.77 -0.996,3.365 -2.766,3.538c-1.771,0.193 -3.387,-1.115 -3.63,-2.904c-0.243,-1.788 0.996,-3.384 2.766,-3.557c0.111,-0.011 0.22,-0.016 0.33,-0.015l-0,-0Zm38.525,7.115c1.637,0.008 3.071,1.261 3.299,2.938c0.243,1.789 -0.995,3.385 -2.765,3.558c-1.77,0.173 -3.386,-1.134 -3.63,-2.923c-0.243,-1.788 0.996,-3.365 2.766,-3.558c0.111,-0.011 0.221,-0.015 0.33,-0.014l-0,-0.001Z"/><path id="path1447" d="M215.734,93.261c-19.199,0 -34.742,12.65 -34.742,28.274c-0,15.624 15.543,28.274 34.742,28.274c8.3,-0 15.956,-2.369 21.934,-6.319c5.982,3.962 13.62,6.319 21.934,6.319c19.199,-0 34.742,-12.65 34.742,-28.274c0,-15.624 -15.543,-28.274 -34.742,-28.274c-8.314,0 -15.952,2.357 -21.934,6.319c-5.977,-3.95 -13.634,-6.319 -21.934,-6.319Z" style="fill:#5a4124;"/><path id="path1449" d="M218.013,94.659c-17.207,-0 -31.139,12.107 -31.139,27.062c0,14.955 13.932,27.062 31.139,27.062c7.439,0 14.302,-2.268 19.659,-6.048c5.362,3.792 12.207,6.048 19.659,6.048c17.208,0 31.139,-12.107 31.139,-27.062c0,-14.955 -13.931,-27.062 -31.139,-27.062c-7.452,-0 -14.298,2.255 -19.659,6.048c-5.357,-3.781 -12.22,-6.048 -19.659,-6.048Z" style="fill:#fff;"/><path id="path1451" d="M234.039,122.23c-0,8.788 -8.198,15.911 -18.309,15.911c-10.112,0 -18.309,-7.124 -18.309,-15.911c0,-8.788 8.198,-15.912 18.309,-15.912c10.112,0 18.309,7.124 18.309,15.912Z" style="fill:#2b0000;"/><path id="path1453" d="M227.207,122.227c0,5.511 -5.14,9.978 -11.481,9.978c-6.341,0 -11.482,-4.468 -11.482,-9.978c0,-5.511 5.141,-9.979 11.482,-9.979c6.341,0 11.481,4.468 11.481,9.979Z"/><path id="path1455" d="M220.536,122.227c-0,2.308 -2.154,4.18 -4.81,4.18c-2.657,-0 -4.81,-1.872 -4.81,-4.18c0,-2.309 2.154,-4.18 4.81,-4.18c2.656,-0 4.81,1.871 4.81,4.18Z" style="fill:#fff;"/><path id="path1457" d="M279.022,122.23c0,8.788 -8.197,15.911 -18.308,15.911c-10.112,0 -18.309,-7.124 -18.309,-15.911c0,-8.788 8.198,-15.912 18.309,-15.912c10.112,0 18.308,7.124 18.308,15.912Z" style="fill:#2b0000;"/><path id="path1459" d="M272.191,122.227c0,5.511 -5.141,9.978 -11.481,9.978c-6.342,0 -11.482,-4.468 -11.482,-9.978c0,-5.511 5.141,-9.979 11.482,-9.979c6.341,0 11.481,4.468 11.481,9.979Z"/><path id="path1461" d="M265.519,122.227c0,2.308 -2.153,4.18 -4.809,4.18c-2.657,-0 -4.81,-1.872 -4.81,-4.18c-0,-2.309 2.153,-4.18 4.81,-4.18c2.656,-0 4.809,1.871 4.809,4.18Z" style="fill:#fff;"/><g id="g1467"><path id="path1463" d="M174.477,69.383c-0,0 62.624,49.5 122.859,0.185c-3.791,19.291 -53.09,32.559 -59.355,46.834c-6.722,-14.961 -57.779,-26.391 -63.505,-47.018l0.001,-0.001Z" style="fill:#825e34;fill-rule:nonzero;"/><path id="path1465" d="M173.264,67.604l0.532,1.921c2.967,10.689 17.368,18.702 31.707,26.017c7.169,3.658 14.351,7.131 20.128,10.604c5.778,3.471 10.116,6.954 11.698,10.476l0.661,1.468l0.645,-1.471c1.471,-3.35 5.622,-6.828 11.144,-10.355c5.523,-3.528 12.383,-7.124 19.183,-10.885c6.8,-3.762 13.543,-7.687 18.855,-11.913c5.311,-4.227 9.222,-8.768 10.21,-13.795l0.35,-1.789l-1.52,1.242c-29.945,24.516 -60.311,24.429 -83.332,18.262c-23.02,-6.166 -38.579,-18.454 -38.579,-18.454l-1.682,-1.329l0,0.001Zm2.58,3.572c4.634,3.303 18.385,12.314 37.269,17.372c22.914,6.138 53.251,6.241 83.001,-17.189c-1.419,3.92 -4.762,7.644 -9.241,11.208c-5.194,4.133 -11.879,8.035 -18.661,11.786c-6.781,3.751 -13.658,7.355 -19.26,10.933c-4.988,3.186 -8.987,6.336 -10.978,9.662c-2.101,-3.47 -6.3,-6.649 -11.549,-9.803c-5.864,-3.524 -13.065,-7.002 -20.216,-10.651c-13.362,-6.817 -26.453,-14.264 -30.365,-23.319l0,0.001Z" style="fill:#5a4124;fill-rule:nonzero;"/></g><path id="path1469" d="M230.951,144.296c-0.035,3.08 4.422,11.994 6.973,13.377c2.977,-1.526 6.749,-10.262 6.749,-13.377c0,-3.115 -4.17,-6.15 -6.749,-6.15c-3.416,-0 -6.939,3.07 -6.973,6.15Z" style="fill:#ed931a;fill-rule:nonzero;"/><g id="g1042"><g id="g1023"><path id="path1019" d="M168.562,67.524c-0,-0 68.3,64.935 133.993,0.242c-4.135,25.307 -57.902,42.713 -64.734,61.439c-7.331,-19.626 -63.015,-34.621 -69.26,-61.681l0.001,-0Z" style="fill:#825e34;fill-rule:nonzero;"/><path id="path1021" d="M167.239,65.189l0.58,2.52c3.237,14.023 18.942,24.535 34.58,34.131c7.82,4.799 15.652,9.355 21.953,13.91c6.302,4.555 11.032,9.124 12.758,13.744l0.721,1.925l0.704,-1.929c1.603,-4.395 6.13,-8.957 12.153,-13.585c6.023,-4.627 13.505,-9.344 20.921,-14.279c7.417,-4.935 14.771,-10.084 20.564,-15.629c5.792,-5.544 10.057,-11.502 11.135,-18.096l0.382,-2.347l-1.658,1.63c-32.659,32.16 -65.776,32.047 -90.884,23.957c-25.106,-8.089 -42.074,-24.209 -42.074,-24.209l-1.835,-1.744l0,0.001Zm2.814,4.686c5.054,4.333 20.051,16.155 40.646,22.79c24.991,8.052 58.077,8.187 90.523,-22.55c-1.548,5.143 -5.193,10.028 -10.079,14.704c-5.665,5.422 -12.956,10.541 -20.351,15.462c-7.396,4.92 -14.896,9.648 -21.006,14.341c-5.44,4.18 -9.802,8.313 -11.973,12.676c-2.291,-4.553 -6.871,-8.723 -12.595,-12.86c-6.396,-4.623 -14.249,-9.186 -22.049,-13.973c-14.572,-8.943 -28.849,-18.713 -33.116,-30.591l0,0.001Z" style="fill:#5a4124;fill-rule:nonzero;"/></g><g id="g1017"><path id="path1471" d="M168.403,78.839c0,0 68.3,64.936 133.993,0.243c-4.135,25.307 -57.901,42.712 -64.734,61.439c-7.331,-19.626 -63.015,-34.621 -69.26,-61.681l0.001,-0.001Z" style="fill:#825e34;fill-rule:nonzero;"/><path id="path1473" d="M167.081,76.505l0.579,2.52c3.237,14.023 18.943,24.534 34.581,34.131c7.819,4.798 15.651,9.355 21.952,13.91c6.302,4.555 11.033,9.123 12.758,13.744l0.721,1.925l0.704,-1.929c1.603,-4.395 6.131,-8.957 12.154,-13.585c6.022,-4.627 13.504,-9.345 20.92,-14.279c7.417,-4.935 14.771,-10.084 20.564,-15.629c5.792,-5.544 10.058,-11.502 11.135,-18.096l0.382,-2.347l-1.658,1.63c-32.658,32.16 -65.776,32.047 -90.883,23.957c-25.107,-8.089 -42.075,-24.209 -42.075,-24.209l-1.835,-1.744l0.001,0.001Zm2.814,4.686c5.053,4.333 20.05,16.154 40.645,22.79c24.991,8.052 58.077,8.187 90.523,-22.55c-1.548,5.142 -5.193,10.028 -10.078,14.704c-5.665,5.422 -12.956,10.54 -20.352,15.461c-7.396,4.921 -14.896,9.648 -21.006,14.342c-5.44,4.18 -9.802,8.312 -11.973,12.676c-2.291,-4.553 -6.871,-8.723 -12.595,-12.86c-6.396,-4.623 -14.249,-9.187 -22.048,-13.973c-14.573,-8.943 -28.85,-18.713 -33.117,-30.591l0.001,0.001Z" style="fill:#5a4124;fill-rule:nonzero;"/></g><g id="g1481"><path id="path1477" d="M168.562,73.945c-0,0 68.3,64.936 133.993,0.243c-4.135,25.306 -57.902,42.712 -64.734,61.439c-7.331,-19.627 -63.015,-34.621 -69.26,-61.681l0.001,-0.001Z" style="fill:#825e34;fill-rule:nonzero;"/><path id="path1479" d="M167.239,71.611l0.58,2.52c3.237,14.023 18.942,24.534 34.58,34.131c7.82,4.798 15.652,9.355 21.953,13.91c6.302,4.554 11.032,9.123 12.758,13.743l0.721,1.926l0.704,-1.929c1.603,-4.395 6.13,-8.957 12.153,-13.585c6.023,-4.628 13.505,-9.345 20.921,-14.28c7.417,-4.934 14.771,-10.083 20.564,-15.628c5.792,-5.544 10.057,-11.502 11.135,-18.096l0.382,-2.347l-1.658,1.63c-32.659,32.16 -65.776,32.046 -90.884,23.957c-25.106,-8.089 -42.074,-24.209 -42.074,-24.209l-1.835,-1.745l0,0.002Zm2.814,4.686c5.054,4.333 20.051,16.154 40.646,22.79c24.991,8.051 58.077,8.187 90.523,-22.55c-1.548,5.142 -5.193,10.028 -10.079,14.703c-5.665,5.422 -12.956,10.541 -20.351,15.462c-7.396,4.921 -14.896,9.648 -21.006,14.342c-5.44,4.179 -9.802,8.312 -11.973,12.676c-2.291,-4.553 -6.871,-8.723 -12.595,-12.86c-6.396,-4.623 -14.249,-9.187 -22.049,-13.973c-14.572,-8.944 -28.849,-18.713 -33.116,-30.592l0,0.002Z" style="fill:#5a4124;fill-rule:nonzero;"/></g></g><g id="g1489"><path id="path1483" d="M206.948,229.848c2.253,0 4.715,1.66 4.068,3.536c-1.565,4.538 -0.334,7.618 -0,11.165c0.184,1.952 -1.815,3.536 -4.068,3.536c-2.254,-0 -3.758,-1.596 -4.069,-3.536c-1.051,-6.577 -0.572,-8.998 0,-11.165c0.505,-1.909 1.815,-3.536 4.069,-3.536Z" style="fill:#ed931a;stroke:#5a4124;stroke-width:2.43px;stroke-linecap:butt;"/><path id="path1485" d="M222.441,229.775c2.254,0 3.566,1.627 4.068,3.536c1.358,5.164 0.385,7.853 0,11.165c-0.226,1.949 -1.814,3.536 -4.068,3.536c-2.254,-0 -4.481,-1.61 -4.068,-3.536c0.775,-3.618 1.821,-7.2 -0,-11.165c-0.836,-1.819 1.814,-3.536 4.068,-3.536Z" style="fill:#ed931a;stroke:#5a4124;stroke-width:2.43px;stroke-linecap:butt;"/><path id="path1487" d="M214.75,229.848c2.254,0 3.583,1.623 4.068,3.536c1.296,5.097 0.485,7.959 0,11.165c-0.293,1.942 -1.814,3.536 -4.068,3.536c-2.254,-0 -3.571,-1.625 -4.068,-3.536c-1.009,-3.881 -1.261,-7.642 -0,-11.165c0.67,-1.87 1.814,-3.536 4.068,-3.536Z" style="fill:#ed931a;stroke:#5a4124;stroke-width:2.43px;stroke-linecap:butt;"/></g><g id="g1497"><path id="path1491" d="M254.404,230.23c2.254,-0 4.715,1.659 4.068,3.535c-1.565,4.538 -0.334,7.618 0,11.165c0.184,1.953 -1.814,3.536 -4.068,3.536c-2.254,0 -3.758,-1.596 -4.068,-3.536c-1.052,-6.577 -0.573,-8.998 -0,-11.165c0.504,-1.909 1.814,-3.535 4.068,-3.535Z" style="fill:#ed931a;stroke:#5a4124;stroke-width:2.43px;stroke-linecap:butt;"/><path id="path1493" d="M269.897,230.157c2.254,-0 3.566,1.626 4.068,3.535c1.358,5.164 0.385,7.853 0,11.165c-0.226,1.949 -1.814,3.536 -4.068,3.536c-2.254,0 -4.481,-1.61 -4.068,-3.536c0.775,-3.618 1.821,-7.2 -0,-11.165c-0.836,-1.819 1.814,-3.535 4.068,-3.535Z" style="fill:#ed931a;stroke:#5a4124;stroke-width:2.43px;stroke-linecap:butt;"/><path id="path1495" d="M262.206,230.23c2.254,-0 3.583,1.622 4.069,3.535c1.295,5.098 0.485,7.959 -0,11.165c-0.294,1.942 -1.815,3.536 -4.069,3.536c-2.253,0 -3.571,-1.625 -4.068,-3.536c-1.009,-3.881 -1.261,-7.642 0,-11.165c0.67,-1.87 1.815,-3.535 4.068,-3.535Z" style="fill:#ed931a;stroke:#5a4124;stroke-width:2.43px;stroke-linecap:butt;"/></g><g id="g1527"><g id="g1505"><path id="path1499" d="M275.858,183.502c-2.189,-2.337 -7.098,-3.97 -12.817,-3.97c-5.56,-0 -10.37,1.541 -12.644,3.774c0.79,-2.932 4.195,-6.057 12.711,-5.938c8.515,0.118 12.151,3.109 12.75,6.134Z" style="fill:#996c38;fill-rule:nonzero;"/><path id="path1501" d="M224.937,183.11c-2.188,-2.337 -7.098,-3.97 -12.816,-3.97c-5.56,-0 -10.37,1.541 -12.644,3.774c0.79,-2.932 4.195,-6.057 12.71,-5.939c8.516,0.119 12.152,3.11 12.75,6.135Z" style="fill:#996c38;fill-rule:nonzero;"/><path id="path1503" d="M250.397,183.306c-2.188,-2.337 -7.098,-3.97 -12.816,-3.97c-5.56,-0 -10.37,1.541 -12.644,3.774c0.79,-2.932 4.195,-6.057 12.71,-5.938c8.516,0.118 12.152,3.109 12.75,6.134Z" style="fill:#996c38;fill-rule:nonzero;"/></g><path id="path1507" d="M250.397,217.72c-2.188,-2.337 -7.098,-3.97 -12.816,-3.97c-5.56,-0 -10.37,1.541 -12.644,3.774c0.79,-2.931 4.195,-6.057 12.71,-5.938c8.516,0.118 12.152,3.109 12.75,6.134Z" style="fill:#996c38;fill-rule:nonzero;"/><g id="g1515"><path id="path1509" d="M237.667,200.415c-2.188,-2.337 -7.098,-3.97 -12.816,-3.97c-5.56,-0 -10.37,1.541 -12.644,3.774c0.79,-2.932 4.195,-6.057 12.71,-5.938c8.516,0.118 12.152,3.109 12.75,6.134Z" style="fill:#996c38;fill-rule:nonzero;"/><g id="g1513"><path id="path1511" d="M263.128,200.611c-2.189,-2.337 -7.099,-3.97 -12.817,-3.97c-5.56,-0 -10.37,1.541 -12.644,3.774c0.79,-2.932 4.195,-6.057 12.71,-5.938c8.516,0.118 12.152,3.109 12.751,6.134Z" style="fill:#996c38;fill-rule:nonzero;"/></g></g><g id="g1525"><path id="path1517" d="M212.207,165.805c-2.188,-2.337 -7.098,-3.97 -12.816,-3.97c-5.56,-0 -10.37,1.541 -12.644,3.774c0.79,-2.932 4.195,-6.057 12.71,-5.939c8.516,0.119 12.152,3.11 12.75,6.135Z" style="fill:#996c38;fill-rule:nonzero;"/><path id="path1519" d="M288.588,166.393c-2.189,-2.337 -7.098,-3.97 -12.817,-3.97c-5.56,-0 -10.37,1.541 -12.644,3.774c0.79,-2.932 4.195,-6.057 12.711,-5.938c8.515,0.118 12.151,3.109 12.75,6.134Z" style="fill:#996c38;fill-rule:nonzero;"/><path id="path1521" d="M237.667,166.001c-2.188,-2.337 -7.098,-3.97 -12.816,-3.97c-5.56,-0 -10.37,1.541 -12.644,3.774c0.79,-2.932 4.195,-6.057 12.71,-5.939c8.516,0.119 12.152,3.11 12.75,6.135Z" style="fill:#996c38;fill-rule:nonzero;"/><path id="path1523" d="M263.127,166.197c-2.188,-2.337 -7.098,-3.97 -12.816,-3.97c-5.56,-0 -10.37,1.541 -12.644,3.774c0.79,-2.932 4.195,-6.057 12.71,-5.939c8.516,0.119 12.152,3.11 12.75,6.135Z" style="fill:#996c38;fill-rule:nonzero;"/></g></g><path id="path5316" d="M285.92,389.022l21.199,-9.5l16.33,-7.251l3.864,8.874l-29.423,13.878l-11.607,-3.084l-0.363,-2.917Z" style="fill-rule:nonzero;"/></g></g><defs><radialGradient id="_Radial1" cx="0" cy="0" r="1" gradientUnits="userSpaceOnUse" gradientTransform="matrix(225.686,0,0,276.871,237.842,290.945)"><stop offset="0" style="stop-color:#fff;stop-opacity:1"/><stop offset="1" style="stop-color:#fff;stop-opacity:0"/></radialGradient></defs></svg>